<svg version="1.2" xmlns="http://www.w3.org/2000/svg" viewBox="0 0 200 200" width="200" height="200">
	<style>
		.s0 { fill: #f8f6f2 } 
	</style>
	<g id="Layer 1">
		<path id="Forme 5" fill-rule="evenodd" class="s0" d="m81 147l-7 7-2-9 10-12 9-13 6-13 6-15 2-10 2-9 1-8h5l-1 11-2 13-6 18-3 9-9 15-4 5z"/>
		<path id="Forme 10" fill-rule="evenodd" class="s0" d="m170 184h17l-26-34-15-22-9-18-6-17-4-14-1-8-1-6h-10l3 25 9 26 10 19z"/>
		<path id="Forme 11" fill-rule="evenodd" class="s0" d="m245 77"/>
		<path id="Forme 8" fill-rule="evenodd" class="s0" d="m164 62v56h9l1-56z"/>
		<path id="Forme 7" fill-rule="evenodd" class="s0" d="m155 59v3h9 18v-4h-27z"/>
		<path id="Forme 9" fill-rule="evenodd" class="s0" d="m164 118v4 3 4l-1 4-1 4-1 4-1 2 2 3 3 3 2-4 2-5 2-7 1-4 0.55-4.86 0.4-6.24z"/>
		<path id="Forme 3" fill-rule="evenodd" class="s0" d="m74 163l7 9 6 5 12 5h17l9-2 8-4 11-8 3 5-8 6-10 6-12 3h-23l-10-2-13-4-11-5-7-5-1-2z"/>
		<path id="Forme 4" fill-rule="evenodd" class="s0" d="m153 184l-12.53-21.92-9.47-13.08-7-6-9-4-4-1h-9l-6 2-6 2-4 2-5 3 5-9 7-4 8-3h12l8 2 8 4 7 5 7 8 5 8 5 7 5 8 4 5 4 6z"/>
		<path id="Forme 1" fill-rule="evenodd" class="s0" d="m20 58v4h8v61h38v-61h8v-4z"/>
		<path id="Forme 2" fill-rule="evenodd" class="s0" d="m28 125l2.87 14.92 8.13 17.08 5 7 8 7 22-8-5-12-2-9-1-11-0.02-9.53-37.98-1.47z"/>
		<path id="Forme 6" fill-rule="evenodd" class="s0" d="m107.96 65.19l1.04-13.19v-15-12h14v11l1 16 0.87 13.3z"/>
	</g>
</svg>